# xmcd
#
# Track frame offsets: 
#        150
#        14588
#        25843
#        36169
#        49812
#        63728
#        77067
#        89950
#        102040
#        115153
#        128889
#        139917
#        152642
#        166243
#        177808
#        190474
#        204082
#        217605
#        230650
#        241606
#
# Disc length: 3369 seconds
#
# Revision: 0
# Processed by: cddbd v1.5.2PL0 Copyright (c) Steve Scherf et al.
# Submitted via: ExactAudioCopyFreeDBPlugin 1.0
#
DISCID=0d0d2714
DTITLE=B.B. King - B.B. Boogie
DYEAR=2010
DGENRE=Blues
TTITLE0=B.B. Boogie
TTITLE1=She's Dynamite
TTITLE2=That's Ain't the Way to Do It
TTITLE3=Three O'Clock Blues
TTITLE4=Blind Love
TTITLE5=Woke Up This Morning
TTITLE6=Please Love Me
TTITLE7=The Woman I Love
TTITLE8=When My Heart Beats Like a Hammer
TTITLE9=You Upset Me Baby
TTITLE10=Love You Baby
TTITLE11=Everyday I Have The Blues
TTITLE12=Boogie Rock
TTITLE13=Did You Ever Love a Woman
TTITLE14=Ten Long Year
TTITLE15=Sweet Little Angel
TTITLE16=Crying Won't Help You
TTITLE17=Bad Luck
TTITLE18=You Don't Know
TTITLE19=Days Of Old
EXTD=
EXTT0=
EXTT1=
EXTT2=
EXTT3=
EXTT4=
EXTT5=
EXTT6=
EXTT7=
EXTT8=
EXTT9=
EXTT10=
EXTT11=
EXTT12=
EXTT13=
EXTT14=
EXTT15=
EXTT16=
EXTT17=
EXTT18=
EXTT19=
PLAYORDER=
